<svg xmlns="http://www.w3.org/2000/svg" viewBox="0 0 140 40">
  <path d="M21.6 26.3V12.9h3.1v13.4h-3.1z" fill="#036AFF"/>
  <path d="M30.7 16.2c.9-2.1 2.9-3.6 5.3-3.6 3.8 0 6.2 2.8 6.2 7v6.7h-3v-6.4c0-2.6-1.4-4.4-3.8-4.4-2.3 0-4.1 1.7-4.1 4.6v6.2h-3V12.9h3v3.3h.4z" fill="#036AFF"/>
  <path d="M54.8 26.3V12.9h3.1v13.4h-3.1z" fill="#036AFF"/>
  <path d="M76.3 26.3v-8.4c0-2.2-1.2-3.2-3-3.2-1.9 0-3.2 1.1-3.2 3.5v8.1h-3.1V8.8h3.1v7.4c.8-2 2.6-3.4 5-3.4 3.3 0 5.2 2.2 5.2 5.6v8h-4z" fill="#036AFF"/>
  <path d="M69.8 18.5c0-4.5 3.6-8.1 8.1-8.1 4.6 0 8.2 3.4 8.2 8.1 0 4.7-3.5 8.1-8.2 8.1-4.6 0-8.1-3.5-8.1-8.1zm13.2 0c0-2.9-2.1-5.1-5-5.1-2.8 0-5 2.2-5 5.1 0 2.9 2.1 5.1 5 5.1s5-2.2 5-5.1z" fill="#036AFF"/>
  <path d="M106.8 26.3v-8.4c0-2.2-1.2-3.2-3-3.2-1.9 0-3.2 1.1-3.2 3.5v8.1h-3.1V12.8h3v2.4c.8-1.6 2.6-2.7 4.5-2.7 3.3 0 5.2 2.1 5.2 5.6v8.1h-3.4z" fill="#036AFF"/>
  <path d="M123.2 26.3V23.7c-.6 1.9-2.4 2.9-4.7 2.9-3.2 0-5.2-2.2-5.2-5.5V13h3.1v7.6c0 2.2 1.2 3.2 3 3.2 1.9 0 3.2-1.1 3.2-3.5V13h3.1v13.3h-2.5z" fill="#036AFF"/>
  <path d="M128.8 19.5c0-3.9 2.9-6.9 6.8-6.9 4 0 6.6 3 6.6 6.8v.7h-10.2c.2 1.9 1.7 3.3 4 3.3 1.3 0 2.7-.5 3.6-1.4l1.3 1.9c-1.2 1.3-3.2 2-5.3 2-4.1 0-6.8-2.9-6.8-6.4zm6.8-4.3c-2.3 0-3.5 1.6-3.7 3.2h7.4c-.1-1.6-1.4-3.2-3.7-3.2z" fill="#036AFF"/>
  <circle cx="12.7" cy="20" r="5.5" fill="#036AFF"/>
  <path d="M6.5 20c0-3.5 2.8-6.3 6.3-6.3V8.1c-6.6 0-11.9 5.3-11.9 11.9S6.2 31.9 12.7 31.9V26.3c-3.5 0-6.2-2.8-6.2-6.3z" fill="#036AFF"/>
  <path d="M44.1 12.9h3.1v13.4h-3.1z" fill="#036AFF"/>
  <circle cx="45.7" cy="8.8" r="1.7" fill="#036AFF"/>
</svg> 