<svg xmlns="http://www.w3.org/2000/svg" viewBox="0 0 130 40">
  <path d="M33.3 8.3C30.3 8.3 28 10.6 28 13.6v4.6h-4.7v-4.6c0-3 -2.3-5.3 -5.3-5.3S12.7 10.6 12.7 13.6v4.6H8v-4.6c0-3-2.3-5.3-5.3-5.3v5.2c0 0 0 0.1 0 0.1v12.1h5.3v-7.5h4.7v7.5h5.3v-7.5H23v7.5h5.3v-7.5h5.3c3 0 5.3-2.3 5.3-5.3C38.6 10.6 36.3 8.3 33.3 8.3z" fill="#FF7A59"/>
  <path d="M123.5 18.7h-5.1v-1.5c0-0.8 0.7-1.5 1.5-1.5h3.6v-5h-5.9c-2.8 0-5 2.2-5 5v3h-3.4v5h3.4v10h6.6v-10h4.2V18.7z" fill="#FF7A59"/>
  <path d="M85.7 18.7h-5.1v-1.5c0-0.8 0.7-1.5 1.5-1.5h3.6v-5h-5.9c-2.8 0-5 2.2-5 5v3h-3.4v5h3.4v10h6.6v-10h4.2V18.7z" fill="#FF7A59"/>
  <path d="M109.4 10.7c-2.8 0-5.2 1.3-6.8 3.3v-3.3h-6.6v23h6.6V22.1c0-2.6 1.7-4.8 4.1-5.5 0.6-0.2 1.3-0.3 2-0.3 2.9 0 5.2 2.3 5.2 5.2v12.2h6.6V20.3C120.3 15 115.4 10.7 109.4 10.7z" fill="#FF7A59"/>
  <path d="M62.5 23.7c0 2.8-2.3 5.1-5.1 5.1 -2.8 0-5.1-2.3-5.1-5.1 0-2.8 2.3-5.1 5.1-5.1C60.3 18.6 62.5 20.9 62.5 23.7z" fill="#FF7A59"/>
  <path d="M69.2 13.8v-3.1h-6.6v3.3c-1.6-2-4-3.3-6.8-3.3 -6 0-10.8 4.9-10.8 10.9 0 6 4.9 10.9 10.8 10.9 2.8 0 5.2-1.3 6.8-3.3v3.3h6.6V21.4H59v5h3.4c-0.9 1.4-2.5 2.3-4.3 2.3 -2.8 0-5.1-2.3-5.1-5.1 0-2.8 2.3-5.1 5.1-5.1 1.8 0 3.4 0.9 4.3 2.3h6.9V13.8z" fill="#FF7A59"/>
</svg> 