<svg xmlns="http://www.w3.org/2000/svg" viewBox="0 0 124 35" fill="none">
  <path d="M22.0815 0H13.1792V8.75H22.0815V0Z" fill="#FF6D5A"/>
  <path d="M11.0407 11.1133H2.13845V19.8633H11.0407V11.1133Z" fill="#FF6D5A"/>
  <path d="M22.0815 11.1133H13.1792V19.8633H22.0815V11.1133Z" fill="#FF6D5A"/>
  <path d="M33.1215 11.1133H24.2192V19.8633H33.1215V11.1133Z" fill="#FF6D5A"/>
  <path d="M11.0407 22.2266H2.13845V30.9766H11.0407V22.2266Z" fill="#FF6D5A"/>
  <path d="M22.0815 22.2266H13.1792V30.9766H22.0815V22.2266Z" fill="#FF6D5A"/>
  <path d="M46.0368 23.7461L43.6485 21.4274L41.2603 23.7461L43.6485 26.0648L46.0368 23.7461Z" fill="#FF6D5A"/>
  <path d="M54.8809 19.9977H49.6243V20.9704H51.7359V27.9055H52.7693V20.9704H54.8809V19.9977Z" fill="#24292E"/>
  <path d="M56.2051 23.9399C56.2051 21.653 57.1177 20.8422 58.4746 20.8422C59.8316 20.8422 60.7441 21.653 60.7441 23.9399C60.7441 26.2269 59.8316 27.0378 58.4746 27.0378C57.1177 27.0378 56.2051 26.2269 56.2051 23.9399ZM61.8418 23.9399C61.8418 21.2683 60.5921 19.9977 58.4746 19.9977C56.3572 19.9977 55.1074 21.2683 55.1074 23.9399C55.1074 26.6116 56.3572 27.8821 58.4746 27.8821C60.5921 27.8821 61.8418 26.6116 61.8418 23.9399Z" fill="#24292E"/>
  <path d="M65.2764 23.9399C65.2764 21.653 66.1889 20.8422 67.5459 20.8422C68.9028 20.8422 69.8154 21.653 69.8154 23.9399C69.8154 26.2269 68.9028 27.0378 67.5459 27.0378C66.1889 27.0378 65.2764 26.2269 65.2764 23.9399ZM70.9131 23.9399C70.9131 21.2683 69.6633 19.9977 67.5459 19.9977C65.4284 19.9977 64.1787 21.2683 64.1787 23.9399C64.1787 26.6116 65.4284 27.8821 67.5459 27.8821C69.6633 27.8821 70.9131 26.6116 70.9131 23.9399Z" fill="#24292E"/>
  <path d="M80.6631 23.9399C80.6631 21.653 81.5756 20.8422 82.9326 20.8422C84.2895 20.8422 85.2021 21.653 85.2021 23.9399C85.2021 26.2269 84.2895 27.0378 82.9326 27.0378C81.5756 27.0378 80.6631 26.2269 80.6631 23.9399ZM86.2998 23.9399C86.2998 21.2683 85.05 19.9977 82.9326 19.9977C80.8151 19.9977 79.5654 21.2683 79.5654 23.9399C79.5654 26.6116 80.8151 27.8821 82.9326 27.8821C85.05 27.8821 86.2998 26.6116 86.2998 23.9399Z" fill="#24292E"/>
  <path d="M88.4229 19.9977H89.4562V26.9618H93.5986V27.9055H88.4229V19.9977Z" fill="#24292E"/>
  <path d="M95.2266 19.9977H98.3701C100.104 19.9977 101.457 20.842 101.457 22.8697C101.457 24.8974 100.104 25.7417 98.3701 25.7417H96.2599V27.9055H95.2266V19.9977ZM98.3144 24.8116C99.6713 24.8116 100.394 24.1933 100.394 22.8697C100.394 21.5459 99.6713 20.9278 98.3144 20.9278H96.2599V24.8116H98.3144Z" fill="#24292E"/>
  <path d="M106.072 21.6528C106.072 20.9705 105.529 20.8424 104.829 20.8424C104.13 20.8424 103.606 20.9705 103.606 21.6528C103.606 22.3352 104.13 22.4794 104.829 22.4794C105.529 22.4794 106.072 22.3352 106.072 21.6528ZM107.095 21.6528C107.095 23.2073 105.51 23.4121 104.829 23.4121C104.149 23.4121 102.564 23.2073 102.564 21.6528C102.564 20.0983 104.149 19.8936 104.829 19.8936C105.51 19.8936 107.095 20.0983 107.095 21.6528ZM102.767 24.1293H107.095V25.0699H102.767V24.1293ZM106.072 26.3454C106.072 25.6651 105.529 25.5359 104.829 25.5359C104.13 25.5359 103.606 25.665 103.606 26.3454C103.606 27.0258 104.13 27.1689 104.829 27.1689C105.529 27.1689 106.072 27.0258 106.072 26.3454ZM107.095 26.3454C107.095 27.8969 105.51 28.1016 104.829 28.1016C104.149 28.1016 102.564 27.8969 102.564 26.3454C102.564 24.7938 104.149 24.5891 104.829 24.5891C105.51 24.5891 107.095 24.7938 107.095 26.3454Z" fill="#24292E"/>
  <path d="M112.265 27.9056H111.232V19.9978H116.407V20.9704H112.265V23.5272H116.021V24.4789H112.265V27.9056Z" fill="#24292E"/>
  <path d="M117.535 19.9978H122.71V20.9704H118.568V23.5272H122.325V24.4789H118.568V26.933H122.71V27.9056H117.535V19.9978Z" fill="#24292E"/>
  <path d="M74.0566 27.9055H73.0233V19.9977H74.0566V27.9055Z" fill="#24292E"/>
  <path d="M77.2144 19.9977H76.1812V27.9055H77.2144V19.9977Z" fill="#24292E"/>
</svg>