<svg xmlns="http://www.w3.org/2000/svg" viewBox="0 0 120 40">
  <path d="M32.4 11H19.5v18h4.1v-5.5h8.8c3.5 0 6.3-2.8 6.3-6.3 0-3.4-2.8-6.2-6.3-6.2zm0 8.5h-8.8v-4.5h8.8c1.2 0 2.2 1 2.2 2.2 0 1.3-1 2.3-2.2 2.3z" fill="#14B8A6"/>
  <path d="M44.9 11v18h3.9V11h-3.9z" fill="#14B8A6"/>
  <path d="M57.2 10.8c-5.2 0-9.5 4.2-9.5 9.5 0 5.2 4.2 9.5 9.5 9.5 5.2 0 9.5-4.2 9.5-9.5 0-5.3-4.3-9.5-9.5-9.5zm0 15c-3 0-5.5-2.5-5.5-5.5s2.5-5.5 5.5-5.5 5.5 2.5 5.5 5.5-2.5 5.5-5.5 5.5z" fill="#14B8A6"/>
  <path d="M83.6 11l-4.8 7.6-4.8-7.6h-4.5l7.2 11.3v6.7h4.1v-6.7L88 11h-4.4z" fill="#14B8A6"/>
  <path d="M94.6 11l-8.9 18h4.3l1.6-3.4h9.7l1.7 3.4h4.3L98.4 11h-3.8zm-1.3 11l3.3-6.9 3.3 6.9h-6.6z" fill="#14B8A6"/>
</svg> 