<svg xmlns="http://www.w3.org/2000/svg" viewBox="0 0 140 40">
  <path d="M26.8 18.7c-.8-.5-1.7-.8-2.7-.9-.2 0-.4-.1-.6-.1-1.6 0-3 .7-4 1.9-.9 1.1-1.4 2.6-1.4 4.2 0 1.3.3 2.5 1 3.4.8 1.2 2.1 1.8 3.7 1.8.3 0 .6 0 .9-.1 1.2-.2 2.2-.8 3-1.7.1.3.2.7.3 1h3.2c-.2-.5-.3-1.2-.4-2.1-.1-.8-.1-1.9-.1-3.3v-3.8c0-1.4-.4-2.5-1.3-3.3-1-.9-2.4-1.3-4.2-1.3-1.1 0-2.1.2-3 .6-.9.4-1.6.9-2.2 1.6l2.1 1.7c.8-1 1.9-1.5 3.1-1.5 1.4 0 2.1.7 2.1 2v.2c-.4-.1-.8-.2-1.2-.2L26 18c-.3-.2-.7-.3-1.1-.4m-3.1 7.6c-.4.1-.7.1-1 .1-.8 0-1.5-.3-1.9-.8-.4-.5-.6-1.2-.6-2 0-1 .3-1.9.9-2.5.5-.6 1.2-.9 2-.9.2 0 .3 0 .5.1.7.1 1.3.3 1.7.6v3.8c-.4.9-1 1.5-1.6 1.7z" fill="#00A1E0"/>
  <path d="M39.5 23.6c-.9 1.1-1.9 1.7-3.1 1.7-2.5 0-3.7-1.9-3.7-5.6 0-1.9.3-3.3 1-4.2.7-.9 1.6-1.4 2.8-1.4.6 0 1.1.1 1.5.3.4.2.8.5 1.1.9l2.1-2.1c-.6-.7-1.4-1.2-2.2-1.6-.8-.3-1.8-.5-3-.5-1.9 0-3.5.7-4.8 2.1-1.3 1.4-1.9 3.3-1.9 5.8 0 2.4.6 4.3 1.8 5.6 1.2 1.3 2.9 2 5 2 2.3 0 4.1-1 5.4-3.1l-2-1.9z" fill="#00A1E0"/>
  <path d="M56.4 28.8h3.3v-9.2c0-1.9-.5-3.4-1.5-4.5-1-1.1-2.5-1.7-4.3-1.7-1.2 0-2.3.2-3.2.7-.4.2-.7.4-1.1.7-.3-.5-.8-.8-1.3-1.1-.6-.2-1.3-.3-2.2-.3-.8 0-1.6.1-2.3.4-.4.2-.9.5-1.3.8v-.9h-3.2v15h3.3v-8.8c0-.9.3-1.6.8-2.1.5-.5 1.1-.7 1.9-.7 1.5 0 2.3.9 2.3 2.7v8.9h3.3v-8.8c0-.9.3-1.6.8-2.1.5-.5 1.1-.7 1.9-.7 1.5 0 2.3.9 2.3 2.7v8.9z" fill="#00A1E0"/>
  <path d="M72.6 16.5c-.7-.8-1.7-1.2-3-1.2-1 0-1.9.2-2.6.7-.4.2-.7.5-1 .9v-1.3h-3.2v15h3.3v-8.2c0-1.2.3-2.1.8-2.7.5-.6 1.3-.9 2.2-.9 1.6 0 2.4.9 2.4 2.7v9.1h3.3v-9.5c0-2.1-.7-3.7-2.2-4.6z" fill="#00A1E0"/>
  <path d="M83.1 13.5c-1.1 0-2.1.2-3 .7-.6.3-1.1.7-1.5 1.2l2.1 1.9c.7-.8 1.6-1.2 2.6-1.2.7 0 1.3.2 1.7.6.4.4.6.9.6 1.5v.7c-.8-.2-1.6-.3-2.3-.3-1.6 0-2.9.4-3.9 1.1-1 .7-1.5 1.8-1.5 3 0 1.2.4 2.2 1.3 2.9.9.7 1.9 1 3.2 1 .8 0 1.5-.1 2.1-.4.4-.2.8-.5 1.1-.8v.9h3.1V17.2c0-1.3-.5-2.3-1.5-3-1-.5-2.1-.7-3.1-.7m.3 9.7c-.4.1-.7.2-1.1.2-1.3 0-1.9-.5-1.9-1.5 0-.5.2-.9.6-1.2.4-.3 1-.4 1.8-.4.6 0 1.3.1 2 .3v1.2c-.4.7-1 1.3-1.4 1.4z" fill="#00A1E0"/>
  <path d="M98 13.8h-4.5v-3.9h-3.3v3.9h-2.5v2.6h2.5v7.1c0 1.7.3 2.9 1 3.6.7.7 1.8 1 3.4 1 .7 0 1.6-.1 2.6-.2v-2.8c-.6.1-1 .1-1.4.1-.6 0-1-.1-1.3-.4-.2-.3-.3-.7-.3-1.3v-7.1h4.5v-2.6z" fill="#00A1E0"/>
  <path d="M106.6 13.4c-2.3 0-4.2.7-5.7 2.1-1.5 1.4-2.2 3.3-2.2 5.6 0 2.3.7 4.2 2.2 5.6 1.5 1.4 3.4 2.1 5.7 2.1 2.3 0 4.2-.7 5.7-2.1 1.5-1.4 2.2-3.3 2.2-5.6 0-2.3-.7-4.2-2.2-5.6-1.5-1.4-3.4-2.1-5.7-2.1m3 10.7c-.8.9-1.8 1.4-3 1.4-1.3 0-2.3-.5-3-1.4-.8-.9-1.1-2.1-1.1-3.6 0-1.5.4-2.6 1.1-3.6.8-.9 1.7-1.4 3-1.4 1.3 0 2.3.5 3 1.4.8.9 1.1 2.1 1.1 3.6.1 1.5-.3 2.7-1.1 3.6z" fill="#00A1E0"/>
  <path d="M123.6 13.8h-3.1V14.8c-.4-.4-.9-.7-1.5-1-.6-.2-1.3-.4-2.1-.4-1.9 0-3.5.7-4.7 2-1.2 1.4-1.8 3.2-1.8 5.4 0 2.2.6 4 1.8 5.4 1.2 1.3 2.8 2 4.7 2 .8 0 1.5-.1 2.1-.4.6-.2 1.1-.6 1.5-1v1H123.6V13.8zm-5.8 12c-1.2 0-2.1-.4-2.8-1.2-.7-.8-1.1-1.9-1.1-3.4 0-1.4.4-2.6 1.1-3.4.7-.8 1.6-1.2 2.8-1.2 1.2 0 2.1.4 2.8 1.2.7.8 1 2 1 3.4 0 1.4-.3 2.6-1 3.4-.7.8-1.6 1.2-2.8 1.2z" fill="#00A1E0"/>
  <path d="M133.6 23.7c-.6.5-1.3.7-2.1.7-1.1 0-2-.4-2.7-1.2-.7-.8-1-1.9-1-3.3 0-1.3.3-2.5 1-3.3.7-.8 1.5-1.2 2.7-1.2.8 0 1.5.2 2.1.7l2.2-2.1c-1.1-1-2.6-1.5-4.4-1.5-2.2 0-4 .7-5.4 2.1-1.4 1.4-2.1 3.2-2.1 5.4 0 2.2.7 4 2.1 5.4 1.4 1.4 3.2 2.1 5.4 2.1 1.9 0 3.4-.5 4.5-1.6l-2.3-2.2z" fill="#00A1E0"/>
  <path d="M18.7 16.7c-.7-1.9-2-3.4-3.8-4.5-1.7-1-3.7-1.6-5.9-1.6-1.1 0-2.2.1-3.2.4-1 .3-1.9.7-2.7 1.2-1.4.9-2.4 2.1-3.1 3.6C-.7 17.3-1 18.8-1 20.5c0 1.5.3 2.9.8 4.2.6 1.3 1.3 2.3 2.3 3.2 1 .9 2.1 1.6 3.4 2 1.3.5 2.7.7 4.2.7 2.4 0 4.5-.6 6.2-1.8.6-.4 1.1-.9 1.6-1.4.5-.5.9-1.1 1.3-1.8l-3.2-1c-.6 1-1.3 1.8-2.2 2.3-.9.5-1.9.8-3.1.8-1.7 0-3-.5-4.1-1.5-1-1-1.6-2.3-1.6-3.9h15.7c.1-2-.4-4-1.6-5.6m-14.4 2.6c.3-1.2.9-2.2 1.8-2.9.9-.7 1.9-1 3.2-1 1.3 0 2.4.4 3.2 1.1.9.7 1.4 1.7 1.6 2.9H4.3z" fill="#00A1E0"/>
  <path d="M118 6c-1.1-.5-2.3-.7-3.5-.7-1.3 0-2.4.2-3.5.7-1.1.5-2 1.2-2.7 2.1-.8.9-1.3 1.9-1.8 3.1-.4 1.2-.6 2.4-.6 3.7 0 1.3.2 2.6.6 3.7.4 1.2 1 2.2 1.8 3.1.8.9 1.7 1.6 2.7 2.1 1.1.5 2.2.7 3.5.7 1.2 0 2.4-.2 3.5-.7 1.1-.5 2-1.2 2.7-2.1.8-.9 1.3-1.9 1.8-3.1.4-1.2.6-2.4.6-3.7 0-1.3-.2-2.6-.6-3.7-.4-1.2-1-2.2-1.8-3.1-.7-.9-1.6-1.6-2.7-2.1m-.5 14.7c-.8.9-1.8 1.4-3 1.4-1.3 0-2.3-.5-3-1.4-.8-.9-1.1-2.1-1.1-3.6 0-1.5.4-2.6 1.1-3.6.8-.9 1.7-1.4 3-1.4 1.3 0 2.3.5 3 1.4.8.9 1.1 2.1 1.1 3.6.1 1.5-.3 2.7-1.1 3.6z" fill="#00A1E0"/>
</svg> 